# Blender v2.74 (sub 0) OBJ File: ''
# www.blender.org
mtllib untitled-scene.mtl
o Plane
v -2.000000 0.000000 -2.000000
v -1.500000 0.000000 -2.000000
v -1.000000 0.000000 -2.000000
v -0.500000 0.000000 -2.000000
v 0.000000 0.000000 -2.000000
v 0.500000 0.000000 -2.000000
v 1.000000 0.000000 -2.000000
v 1.500000 0.000000 -2.000000
v 2.000000 0.000000 -2.000000
v -2.000000 0.000000 -1.500000
v -1.500000 0.000000 -1.500000
v -1.000000 0.000000 -1.500000
v -0.500000 0.000000 -1.500000
v 0.000000 0.000000 -1.500000
v 0.500000 0.000000 -1.500000
v 1.000000 0.000000 -1.500000
v 1.500000 0.000000 -1.500000
v 2.000000 0.000000 -1.500000
v -2.000000 0.000000 -1.000000
v -1.500000 0.000000 -1.000000
v -1.000000 0.000000 -1.000000
v -0.500000 0.000000 -1.000000
v 0.000000 0.000000 -1.000000
v 0.500000 0.000000 -1.000000
v 1.000000 0.000000 -1.000000
v 1.500000 0.000000 -1.000000
v 2.000000 0.000000 -1.000000
v -2.000000 0.000000 -0.500000
v -1.500000 0.000000 -0.500000
v -1.000000 0.000000 -0.500000
v -0.500000 0.000000 -0.500000
v 0.000000 0.000000 -0.500000
v 0.500000 0.000000 -0.500000
v 1.000000 0.000000 -0.500000
v 1.500000 0.000000 -0.500000
v 2.000000 0.000000 -0.500000
v -2.000000 0.000000 0.000000
v -1.500000 0.000000 0.000000
v -1.000000 0.000000 0.000000
v -0.500000 0.000000 0.000000
v 0.000000 0.000000 0.000000
v 0.500000 0.000000 0.000000
v 1.000000 0.000000 0.000000
v 1.500000 0.000000 0.000000
v 2.000000 0.000000 0.000000
v -2.000000 -0.000000 0.500000
v -1.500000 -0.000000 0.500000
v -1.000000 -0.000000 0.500000
v -0.500000 -0.000000 0.500000
v 0.000000 -0.000000 0.500000
v 0.500000 -0.000000 0.500000
v 1.000000 -0.000000 0.500000
v 1.500000 -0.000000 0.500000
v 2.000000 -0.000000 0.500000
v -2.000000 -0.000000 1.000000
v -1.500000 -0.000000 1.000000
v -1.000000 -0.000000 1.000000
v -0.500000 -0.000000 1.000000
v 0.000000 -0.000000 1.000000
v 0.500000 -0.000000 1.000000
v 1.000000 -0.000000 1.000000
v 1.500000 -0.000000 1.000000
v 2.000000 -0.000000 1.000000
v -2.000000 -0.000000 1.500000
v -1.500000 -0.000000 1.500000
v -1.000000 -0.000000 1.500000
v -0.500000 -0.000000 1.500000
v 0.000000 -0.000000 1.500000
v 0.500000 -0.000000 1.500000
v 1.000000 -0.000000 1.500000
v 1.500000 -0.000000 1.500000
v 2.000000 -0.000000 1.500000
v -2.000000 -0.000000 2.000000
v -1.500000 -0.000000 2.000000
v -1.000000 -0.000000 2.000000
v -0.500000 -0.000000 2.000000
v 0.000000 -0.000000 2.000000
v 0.500000 -0.000000 2.000000
v 1.000000 -0.000000 2.000000
v 1.500000 -0.000000 2.000000
v 2.000000 -0.000000 2.000000
vn 0.000000 1.000000 0.000000
usemtl b0b0b0
s 1
f 1//1 10//1 11//1
f 1//1 11//1 2//1
f 2//1 11//1 12//1
f 2//1 12//1 3//1
f 3//1 12//1 13//1
f 3//1 13//1 4//1
f 4//1 13//1 14//1
f 4//1 14//1 5//1
f 5//1 14//1 15//1
f 5//1 15//1 6//1
f 6//1 15//1 16//1
f 6//1 16//1 7//1
f 7//1 16//1 17//1
f 7//1 17//1 8//1
f 8//1 17//1 18//1
f 8//1 18//1 9//1
f 10//1 19//1 20//1
f 10//1 20//1 11//1
f 11//1 20//1 21//1
f 11//1 21//1 12//1
f 12//1 21//1 22//1
f 12//1 22//1 13//1
f 13//1 22//1 23//1
f 13//1 23//1 14//1
f 14//1 23//1 24//1
f 14//1 24//1 15//1
f 15//1 24//1 25//1
f 15//1 25//1 16//1
f 16//1 25//1 26//1
f 16//1 26//1 17//1
f 17//1 26//1 27//1
f 17//1 27//1 18//1
f 19//1 28//1 29//1
f 19//1 29//1 20//1
f 20//1 29//1 30//1
f 20//1 30//1 21//1
f 21//1 30//1 31//1
f 21//1 31//1 22//1
f 22//1 31//1 32//1
f 22//1 32//1 23//1
f 23//1 32//1 33//1
f 23//1 33//1 24//1
f 24//1 33//1 34//1
f 24//1 34//1 25//1
f 25//1 34//1 35//1
f 25//1 35//1 26//1
f 26//1 35//1 36//1
f 26//1 36//1 27//1
f 28//1 37//1 38//1
f 28//1 38//1 29//1
f 29//1 38//1 39//1
f 29//1 39//1 30//1
f 30//1 39//1 40//1
f 30//1 40//1 31//1
f 31//1 40//1 41//1
f 31//1 41//1 32//1
f 32//1 41//1 42//1
f 32//1 42//1 33//1
f 33//1 42//1 43//1
f 33//1 43//1 34//1
f 34//1 43//1 44//1
f 34//1 44//1 35//1
f 35//1 44//1 45//1
f 35//1 45//1 36//1
f 37//1 46//1 47//1
f 37//1 47//1 38//1
f 38//1 47//1 48//1
f 38//1 48//1 39//1
f 39//1 48//1 49//1
f 39//1 49//1 40//1
f 40//1 49//1 50//1
f 40//1 50//1 41//1
f 41//1 50//1 51//1
f 41//1 51//1 42//1
f 42//1 51//1 52//1
f 42//1 52//1 43//1
f 43//1 52//1 53//1
f 43//1 53//1 44//1
f 44//1 53//1 54//1
f 44//1 54//1 45//1
f 46//1 55//1 56//1
f 46//1 56//1 47//1
f 47//1 56//1 57//1
f 47//1 57//1 48//1
f 48//1 57//1 58//1
f 48//1 58//1 49//1
f 49//1 58//1 59//1
f 49//1 59//1 50//1
f 50//1 59//1 60//1
f 50//1 60//1 51//1
f 51//1 60//1 61//1
f 51//1 61//1 52//1
f 52//1 61//1 62//1
f 52//1 62//1 53//1
f 53//1 62//1 63//1
f 53//1 63//1 54//1
f 55//1 64//1 65//1
f 55//1 65//1 56//1
f 56//1 65//1 66//1
f 56//1 66//1 57//1
f 57//1 66//1 67//1
f 57//1 67//1 58//1
f 58//1 67//1 68//1
f 58//1 68//1 59//1
f 59//1 68//1 69//1
f 59//1 69//1 60//1
f 60//1 69//1 70//1
f 60//1 70//1 61//1
f 61//1 70//1 71//1
f 61//1 71//1 62//1
f 62//1 71//1 72//1
f 62//1 72//1 63//1
f 64//1 73//1 74//1
f 64//1 74//1 65//1
f 65//1 74//1 75//1
f 65//1 75//1 66//1
f 66//1 75//1 76//1
f 66//1 76//1 67//1
f 67//1 76//1 77//1
f 67//1 77//1 68//1
f 68//1 77//1 78//1
f 68//1 78//1 69//1
f 69//1 78//1 79//1
f 69//1 79//1 70//1
f 70//1 79//1 80//1
f 70//1 80//1 71//1
f 71//1 80//1 81//1
f 71//1 81//1 72//1
