# Blender v2.74 (sub 0) OBJ File: ''
# www.blender.org
mtllib untitled-scene.mtl
o Sphere
v 0.000000 0.500000 -0.000000
v 0.191300 0.461900 -0.000000
v 0.353600 0.353600 -0.000000
v 0.461900 0.191300 -0.000000
v 0.500000 0.000000 0.000000
v 0.461900 -0.191300 0.000000
v 0.353600 -0.353600 0.000000
v 0.191300 -0.461900 0.000000
v 0.000000 -0.500000 0.000000
v 0.176800 0.461900 0.073200
v 0.326600 0.353600 0.135300
v 0.426800 0.191300 0.176800
v 0.461900 0.000000 0.191300
v 0.426800 -0.191300 0.176800
v 0.326600 -0.353600 0.135300
v 0.176800 -0.461900 0.073200
v 0.135300 0.461900 0.135300
v 0.250000 0.353600 0.250000
v 0.326600 0.191300 0.326600
v 0.353600 0.000000 0.353600
v 0.326600 -0.191300 0.326600
v 0.250000 -0.353600 0.250000
v 0.135300 -0.461900 0.135300
v 0.073200 0.461900 0.176800
v 0.135300 0.353600 0.326600
v 0.176800 0.191300 0.426800
v 0.191300 0.000000 0.461900
v 0.176800 -0.191300 0.426800
v 0.135300 -0.353600 0.326600
v 0.073200 -0.461900 0.176800
v 0.000000 0.461900 0.191300
v 0.000000 0.353600 0.353600
v 0.000000 0.191300 0.461900
v 0.000000 0.000000 0.500000
v 0.000000 -0.191300 0.461900
v 0.000000 -0.353600 0.353600
v 0.000000 -0.461900 0.191300
v -0.073200 0.461900 0.176800
v -0.135300 0.353600 0.326600
v -0.176800 0.191300 0.426800
v -0.191300 0.000000 0.461900
v -0.176800 -0.191300 0.426800
v -0.135300 -0.353600 0.326600
v -0.073200 -0.461900 0.176800
v -0.135300 0.461900 0.135300
v -0.250000 0.353600 0.250000
v -0.326600 0.191300 0.326600
v -0.353600 0.000000 0.353600
v -0.326600 -0.191300 0.326600
v -0.250000 -0.353600 0.250000
v -0.135300 -0.461900 0.135300
v -0.176800 0.461900 0.073200
v -0.326600 0.353600 0.135300
v -0.426800 0.191300 0.176800
v -0.461900 0.000000 0.191300
v -0.426800 -0.191300 0.176800
v -0.326600 -0.353600 0.135300
v -0.176800 -0.461900 0.073200
v -0.191300 0.461900 -0.000000
v -0.353600 0.353600 -0.000000
v -0.461900 0.191300 -0.000000
v -0.500000 0.000000 0.000000
v -0.461900 -0.191300 0.000000
v -0.353600 -0.353600 0.000000
v -0.191300 -0.461900 0.000000
v -0.176800 0.461900 -0.073200
v -0.326600 0.353600 -0.135300
v -0.426800 0.191300 -0.176800
v -0.461900 -0.000000 -0.191300
v -0.426800 -0.191300 -0.176800
v -0.326600 -0.353600 -0.135300
v -0.176800 -0.461900 -0.073200
v -0.135300 0.461900 -0.135300
v -0.250000 0.353600 -0.250000
v -0.326600 0.191300 -0.326600
v -0.353600 -0.000000 -0.353600
v -0.326600 -0.191300 -0.326600
v -0.250000 -0.353600 -0.250000
v -0.135300 -0.461900 -0.135300
v -0.073200 0.461900 -0.176800
v -0.135300 0.353600 -0.326600
v -0.176800 0.191300 -0.426800
v -0.191300 -0.000000 -0.461900
v -0.176800 -0.191300 -0.426800
v -0.135300 -0.353600 -0.326600
v -0.073200 -0.461900 -0.176800
v 0.000000 0.461900 -0.191300
v 0.000000 0.353600 -0.353600
v 0.000000 0.191300 -0.461900
v 0.000000 -0.000000 -0.500000
v 0.000000 -0.191300 -0.461900
v 0.000000 -0.353600 -0.353600
v 0.000000 -0.461900 -0.191300
v 0.073200 0.461900 -0.176800
v 0.135300 0.353600 -0.326600
v 0.176800 0.191300 -0.426800
v 0.191300 -0.000000 -0.461900
v 0.176800 -0.191300 -0.426800
v 0.135300 -0.353600 -0.326600
v 0.073200 -0.461900 -0.176800
v 0.135300 0.461900 -0.135300
v 0.250000 0.353600 -0.250000
v 0.326600 0.191300 -0.326600
v 0.353600 -0.000000 -0.353600
v 0.326600 -0.191300 -0.326600
v 0.250000 -0.353600 -0.250000
v 0.135300 -0.461900 -0.135300
v 0.176800 0.461900 -0.073200
v 0.326600 0.353600 -0.135300
v 0.426800 0.191300 -0.176800
v 0.461900 -0.000000 -0.191300
v 0.426800 -0.191300 -0.176800
v 0.326600 -0.353600 -0.135300
v 0.176800 -0.461900 -0.073200
vn 0.000000 1.000000 0.000000
vn 0.372400 0.915200 0.154100
vn 0.402900 0.915300 0.000100
vn 0.664000 0.695200 0.275200
vn 0.718900 0.695100 -0.000100
vn 0.856700 0.374200 0.354800
vn 0.927300 0.374200 0.000000
vn 0.923900 -0.000000 0.382500
vn 1.000000 0.000000 0.000000
vn 0.856700 -0.374200 0.355000
vn 0.927300 -0.374200 0.000000
vn 0.664100 -0.695200 0.275100
vn 0.718900 -0.695100 0.000100
vn 0.372400 -0.915200 0.154100
vn 0.402900 -0.915300 -0.000100
vn 0.000000 -1.000000 0.000000
vn 0.284900 0.915200 0.285000
vn 0.508400 0.695100 0.508300
vn 0.655600 0.374400 0.655700
vn 0.707100 0.000000 0.707100
vn 0.655700 -0.374400 0.655600
vn 0.508300 -0.695100 0.508400
vn 0.285000 -0.915200 0.284900
vn 0.154100 0.915200 0.372400
vn 0.275100 0.695200 0.664100
vn 0.355000 0.374200 0.856700
vn 0.382500 0.000000 0.923900
vn 0.354800 -0.374200 0.856700
vn 0.275200 -0.695200 0.664000
vn 0.154100 -0.915200 0.372400
vn -0.000100 0.915300 0.402900
vn 0.000100 0.695100 0.718900
vn 0.000000 0.374200 0.927300
vn 0.000000 0.000000 1.000000
vn 0.000000 -0.374200 0.927300
vn -0.000100 -0.695100 0.718900
vn 0.000100 -0.915300 0.402900
vn -0.154100 0.915200 0.372400
vn -0.275200 0.695200 0.664000
vn -0.354800 0.374200 0.856700
vn -0.382500 -0.000000 0.923900
vn -0.355000 -0.374200 0.856700
vn -0.275100 -0.695200 0.664100
vn -0.154100 -0.915200 0.372400
vn -0.285000 0.915200 0.284900
vn -0.508300 0.695100 0.508400
vn -0.655700 0.374400 0.655600
vn -0.707100 0.000000 0.707100
vn -0.655600 -0.374400 0.655700
vn -0.508400 -0.695100 0.508300
vn -0.284900 -0.915200 0.285000
vn -0.372400 0.915200 0.154100
vn -0.664100 0.695200 0.275100
vn -0.856700 0.374200 0.355000
vn -0.923900 0.000000 0.382500
vn -0.856700 -0.374200 0.354800
vn -0.664000 -0.695200 0.275200
vn -0.372400 -0.915200 0.154100
vn -0.402900 0.915300 -0.000100
vn -0.718900 0.695100 0.000100
vn -0.927300 0.374200 0.000000
vn -1.000000 0.000000 0.000000
vn -0.927300 -0.374200 0.000000
vn -0.718900 -0.695100 -0.000100
vn -0.402900 -0.915300 0.000100
vn -0.372400 0.915200 -0.154100
vn -0.664000 0.695200 -0.275200
vn -0.856700 0.374200 -0.354800
vn -0.923900 -0.000000 -0.382500
vn -0.856700 -0.374200 -0.355000
vn -0.664100 -0.695200 -0.275100
vn -0.372400 -0.915200 -0.154100
vn -0.284900 0.915200 -0.285000
vn -0.508400 0.695100 -0.508300
vn -0.655600 0.374400 -0.655700
vn -0.707100 0.000000 -0.707100
vn -0.655700 -0.374400 -0.655600
vn -0.508300 -0.695100 -0.508400
vn -0.285000 -0.915200 -0.284900
vn -0.154100 0.915200 -0.372400
vn -0.275100 0.695200 -0.664100
vn -0.355000 0.374200 -0.856700
vn -0.382500 0.000000 -0.923900
vn -0.354800 -0.374200 -0.856700
vn -0.275200 -0.695200 -0.664000
vn -0.154100 -0.915200 -0.372400
vn 0.000100 0.915300 -0.402900
vn -0.000100 0.695100 -0.718900
vn 0.000000 0.374200 -0.927300
vn 0.000000 0.000000 -1.000000
vn 0.000000 -0.374200 -0.927300
vn 0.000100 -0.695100 -0.718900
vn -0.000100 -0.915300 -0.402900
vn 0.154100 0.915200 -0.372400
vn 0.275200 0.695200 -0.664000
vn 0.354800 0.374200 -0.856700
vn 0.382500 -0.000000 -0.923900
vn 0.355000 -0.374200 -0.856700
vn 0.275100 -0.695200 -0.664100
vn 0.154100 -0.915200 -0.372400
vn 0.285000 0.915200 -0.284900
vn 0.508300 0.695100 -0.508400
vn 0.655700 0.374400 -0.655600
vn 0.707100 0.000000 -0.707100
vn 0.655600 -0.374400 -0.655700
vn 0.508400 -0.695100 -0.508300
vn 0.284900 -0.915200 -0.285000
vn 0.372400 0.915200 -0.154100
vn 0.664100 0.695200 -0.275100
vn 0.856700 0.374200 -0.355000
vn 0.923900 0.000000 -0.382500
vn 0.856700 -0.374200 -0.354800
vn 0.664000 -0.695200 -0.275200
vn 0.372400 -0.915200 -0.154100
usemtl b0b0b0
s 1
f 1//1 10//2 2//3
f 2//3 10//2 11//4
f 2//3 11//4 3//5
f 3//5 11//4 12//6
f 3//5 12//6 4//7
f 4//7 12//6 13//8
f 4//7 13//8 5//9
f 5//9 13//8 14//10
f 5//9 14//10 6//11
f 6//11 14//10 15//12
f 6//11 15//12 7//13
f 7//13 15//12 16//14
f 7//13 16//14 8//15
f 8//15 16//14 9//16
f 1//1 17//17 10//2
f 10//2 17//17 18//18
f 10//2 18//18 11//4
f 11//4 18//18 19//19
f 11//4 19//19 12//6
f 12//6 19//19 20//20
f 12//6 20//20 13//8
f 13//8 20//20 21//21
f 13//8 21//21 14//10
f 14//10 21//21 22//22
f 14//10 22//22 15//12
f 15//12 22//22 23//23
f 15//12 23//23 16//14
f 16//14 23//23 9//16
f 1//1 24//24 17//17
f 17//17 24//24 25//25
f 17//17 25//25 18//18
f 18//18 25//25 26//26
f 18//18 26//26 19//19
f 19//19 26//26 27//27
f 19//19 27//27 20//20
f 20//20 27//27 28//28
f 20//20 28//28 21//21
f 21//21 28//28 29//29
f 21//21 29//29 22//22
f 22//22 29//29 30//30
f 22//22 30//30 23//23
f 23//23 30//30 9//16
f 1//1 31//31 24//24
f 24//24 31//31 32//32
f 24//24 32//32 25//25
f 25//25 32//32 33//33
f 25//25 33//33 26//26
f 26//26 33//33 34//34
f 26//26 34//34 27//27
f 27//27 34//34 35//35
f 27//27 35//35 28//28
f 28//28 35//35 36//36
f 28//28 36//36 29//29
f 29//29 36//36 37//37
f 29//29 37//37 30//30
f 30//30 37//37 9//16
f 1//1 38//38 31//31
f 31//31 38//38 39//39
f 31//31 39//39 32//32
f 32//32 39//39 40//40
f 32//32 40//40 33//33
f 33//33 40//40 41//41
f 33//33 41//41 34//34
f 34//34 41//41 42//42
f 34//34 42//42 35//35
f 35//35 42//42 43//43
f 35//35 43//43 36//36
f 36//36 43//43 44//44
f 36//36 44//44 37//37
f 37//37 44//44 9//16
f 1//1 45//45 38//38
f 38//38 45//45 46//46
f 38//38 46//46 39//39
f 39//39 46//46 47//47
f 39//39 47//47 40//40
f 40//40 47//47 48//48
f 40//40 48//48 41//41
f 41//41 48//48 49//49
f 41//41 49//49 42//42
f 42//42 49//49 50//50
f 42//42 50//50 43//43
f 43//43 50//50 51//51
f 43//43 51//51 44//44
f 44//44 51//51 9//16
f 1//1 52//52 45//45
f 45//45 52//52 53//53
f 45//45 53//53 46//46
f 46//46 53//53 54//54
f 46//46 54//54 47//47
f 47//47 54//54 55//55
f 47//47 55//55 48//48
f 48//48 55//55 56//56
f 48//48 56//56 49//49
f 49//49 56//56 57//57
f 49//49 57//57 50//50
f 50//50 57//57 58//58
f 50//50 58//58 51//51
f 51//51 58//58 9//16
f 1//1 59//59 52//52
f 52//52 59//59 60//60
f 52//52 60//60 53//53
f 53//53 60//60 61//61
f 53//53 61//61 54//54
f 54//54 61//61 62//62
f 54//54 62//62 55//55
f 55//55 62//62 63//63
f 55//55 63//63 56//56
f 56//56 63//63 64//64
f 56//56 64//64 57//57
f 57//57 64//64 65//65
f 57//57 65//65 58//58
f 58//58 65//65 9//16
f 1//1 66//66 59//59
f 59//59 66//66 67//67
f 59//59 67//67 60//60
f 60//60 67//67 68//68
f 60//60 68//68 61//61
f 61//61 68//68 69//69
f 61//61 69//69 62//62
f 62//62 69//69 70//70
f 62//62 70//70 63//63
f 63//63 70//70 71//71
f 63//63 71//71 64//64
f 64//64 71//71 72//72
f 64//64 72//72 65//65
f 65//65 72//72 9//16
f 1//1 73//73 66//66
f 66//66 73//73 74//74
f 66//66 74//74 67//67
f 67//67 74//74 75//75
f 67//67 75//75 68//68
f 68//68 75//75 76//76
f 68//68 76//76 69//69
f 69//69 76//76 77//77
f 69//69 77//77 70//70
f 70//70 77//77 78//78
f 70//70 78//78 71//71
f 71//71 78//78 79//79
f 71//71 79//79 72//72
f 72//72 79//79 9//16
f 1//1 80//80 73//73
f 73//73 80//80 81//81
f 73//73 81//81 74//74
f 74//74 81//81 82//82
f 74//74 82//82 75//75
f 75//75 82//82 83//83
f 75//75 83//83 76//76
f 76//76 83//83 84//84
f 76//76 84//84 77//77
f 77//77 84//84 85//85
f 77//77 85//85 78//78
f 78//78 85//85 86//86
f 78//78 86//86 79//79
f 79//79 86//86 9//16
f 1//1 87//87 80//80
f 80//80 87//87 88//88
f 80//80 88//88 81//81
f 81//81 88//88 89//89
f 81//81 89//89 82//82
f 82//82 89//89 90//90
f 82//82 90//90 83//83
f 83//83 90//90 91//91
f 83//83 91//91 84//84
f 84//84 91//91 92//92
f 84//84 92//92 85//85
f 85//85 92//92 93//93
f 85//85 93//93 86//86
f 86//86 93//93 9//16
f 1//1 94//94 87//87
f 87//87 94//94 95//95
f 87//87 95//95 88//88
f 88//88 95//95 96//96
f 88//88 96//96 89//89
f 89//89 96//96 97//97
f 89//89 97//97 90//90
f 90//90 97//97 98//98
f 90//90 98//98 91//91
f 91//91 98//98 99//99
f 91//91 99//99 92//92
f 92//92 99//99 100//100
f 92//92 100//100 93//93
f 93//93 100//100 9//16
f 1//1 101//101 94//94
f 94//94 101//101 102//102
f 94//94 102//102 95//95
f 95//95 102//102 103//103
f 95//95 103//103 96//96
f 96//96 103//103 104//104
f 96//96 104//104 97//97
f 97//97 104//104 105//105
f 97//97 105//105 98//98
f 98//98 105//105 106//106
f 98//98 106//106 99//99
f 99//99 106//106 107//107
f 99//99 107//107 100//100
f 100//100 107//107 9//16
f 1//1 108//108 101//101
f 101//101 108//108 109//109
f 101//101 109//109 102//102
f 102//102 109//109 110//110
f 102//102 110//110 103//103
f 103//103 110//110 111//111
f 103//103 111//111 104//104
f 104//104 111//111 112//112
f 104//104 112//112 105//105
f 105//105 112//112 113//113
f 105//105 113//113 106//106
f 106//106 113//113 114//114
f 106//106 114//114 107//107
f 107//107 114//114 9//16
f 1//1 2//3 108//108
f 108//108 2//3 3//5
f 108//108 3//5 109//109
f 109//109 3//5 4//7
f 109//109 4//7 110//110
f 110//110 4//7 5//9
f 110//110 5//9 111//111
f 111//111 5//9 6//11
f 111//111 6//11 112//112
f 112//112 6//11 7//13
f 112//112 7//13 113//113
f 113//113 7//13 8//15
f 113//113 8//15 114//114
f 114//114 8//15 9//16
o Sphere1
v 0.000000 1.016400 -0.000000
v 0.114800 0.993600 -0.000000
v 0.212100 0.928500 -0.000000
v 0.277200 0.831200 -0.000000
v 0.300000 0.716400 0.000000
v 0.277200 0.601600 0.000000
v 0.212100 0.504300 0.000000
v 0.114800 0.439200 0.000000
v 0.000000 0.416400 0.000000
v 0.081200 0.993600 0.081200
v 0.150000 0.928500 0.150000
v 0.196000 0.831200 0.196000
v 0.212100 0.716400 0.212100
v 0.196000 0.601600 0.196000
v 0.150000 0.504300 0.150000
v 0.081200 0.439200 0.081200
v 0.000000 0.993600 0.114800
v 0.000000 0.928500 0.212100
v 0.000000 0.831200 0.277200
v 0.000000 0.716400 0.300000
v 0.000000 0.601600 0.277200
v 0.000000 0.504300 0.212100
v 0.000000 0.439200 0.114800
v -0.081200 0.993600 0.081200
v -0.150000 0.928500 0.150000
v -0.196000 0.831200 0.196000
v -0.212100 0.716400 0.212100
v -0.196000 0.601600 0.196000
v -0.150000 0.504300 0.150000
v -0.081200 0.439200 0.081200
v -0.114800 0.993600 -0.000000
v -0.212100 0.928500 -0.000000
v -0.277200 0.831200 -0.000000
v -0.300000 0.716400 0.000000
v -0.277200 0.601600 0.000000
v -0.212100 0.504300 0.000000
v -0.114800 0.439200 0.000000
v -0.081200 0.993600 -0.081200
v -0.150000 0.928500 -0.150000
v -0.196000 0.831200 -0.196000
v -0.212100 0.716400 -0.212100
v -0.196000 0.601600 -0.196000
v -0.150000 0.504300 -0.150000
v -0.081200 0.439200 -0.081200
v 0.000000 0.993600 -0.114800
v 0.000000 0.928500 -0.212100
v 0.000000 0.831200 -0.277200
v 0.000000 0.716400 -0.300000
v 0.000000 0.601600 -0.277200
v 0.000000 0.504300 -0.212100
v 0.000000 0.439200 -0.114800
v 0.081200 0.993600 -0.081200
v 0.150000 0.928500 -0.150000
v 0.196000 0.831200 -0.196000
v 0.212100 0.716400 -0.212100
v 0.196000 0.601600 -0.196000
v 0.150000 0.504300 -0.150000
v 0.081200 0.439200 -0.081200
vn 0.000000 1.000000 0.000000
vn 0.299000 0.906200 0.298900
vn 0.422800 0.906200 0.000000
vn 0.516000 0.683800 0.515900
vn 0.729500 0.683900 0.000000
vn 0.657900 0.366700 0.657800
vn 0.930300 0.366800 0.000000
vn 0.707100 0.000000 0.707100
vn 1.000000 0.000000 0.000000
vn 0.657800 -0.366700 0.657900
vn 0.930300 -0.366800 -0.000000
vn 0.515900 -0.683800 0.516000
vn 0.729500 -0.683900 -0.000000
vn 0.298900 -0.906200 0.299000
vn 0.422800 -0.906200 0.000000
vn 0.000000 -1.000000 0.000000
vn 0.000000 0.906200 0.422800
vn -0.000000 0.683900 0.729500
vn -0.000000 0.366800 0.930300
vn 0.000000 0.000000 1.000000
vn 0.000000 -0.366800 0.930300
vn 0.000000 -0.683900 0.729500
vn 0.000000 -0.906200 0.422800
vn -0.298900 0.906200 0.299000
vn -0.515900 0.683800 0.516000
vn -0.657800 0.366700 0.657900
vn -0.707100 0.000000 0.707100
vn -0.657900 -0.366700 0.657800
vn -0.516000 -0.683800 0.515900
vn -0.299000 -0.906200 0.298900
vn -0.422800 0.906200 0.000000
vn -0.729500 0.683900 -0.000000
vn -0.930300 0.366800 -0.000000
vn -1.000000 0.000000 0.000000
vn -0.930300 -0.366800 0.000000
vn -0.729500 -0.683900 0.000000
vn -0.422800 -0.906200 0.000000
vn -0.299000 0.906200 -0.298900
vn -0.516000 0.683800 -0.515900
vn -0.657900 0.366700 -0.657800
vn -0.707100 0.000000 -0.707100
vn -0.657800 -0.366700 -0.657900
vn -0.515900 -0.683800 -0.516000
vn -0.298900 -0.906200 -0.299000
vn 0.000000 0.906200 -0.422800
vn 0.000000 0.683900 -0.729500
vn 0.000000 0.366800 -0.930300
vn 0.000000 0.000000 -1.000000
vn -0.000000 -0.366800 -0.930300
vn -0.000000 -0.683900 -0.729500
vn 0.000000 -0.906200 -0.422800
vn 0.298900 0.906200 -0.299000
vn 0.515900 0.683800 -0.516000
vn 0.657800 0.366700 -0.657900
vn 0.707100 0.000000 -0.707100
vn 0.657900 -0.366700 -0.657800
vn 0.516000 -0.683800 -0.515900
vn 0.299000 -0.906200 -0.298900
usemtl b0b0b0
s 1
f 115//115 124//116 116//117
f 116//117 124//116 125//118
f 116//117 125//118 117//119
f 117//119 125//118 126//120
f 117//119 126//120 118//121
f 118//121 126//120 127//122
f 118//121 127//122 119//123
f 119//123 127//122 128//124
f 119//123 128//124 120//125
f 120//125 128//124 129//126
f 120//125 129//126 121//127
f 121//127 129//126 130//128
f 121//127 130//128 122//129
f 122//129 130//128 123//130
f 115//115 131//131 124//116
f 124//116 131//131 132//132
f 124//116 132//132 125//118
f 125//118 132//132 133//133
f 125//118 133//133 126//120
f 126//120 133//133 134//134
f 126//120 134//134 127//122
f 127//122 134//134 135//135
f 127//122 135//135 128//124
f 128//124 135//135 136//136
f 128//124 136//136 129//126
f 129//126 136//136 137//137
f 129//126 137//137 130//128
f 130//128 137//137 123//130
f 115//115 138//138 131//131
f 131//131 138//138 139//139
f 131//131 139//139 132//132
f 132//132 139//139 140//140
f 132//132 140//140 133//133
f 133//133 140//140 141//141
f 133//133 141//141 134//134
f 134//134 141//141 142//142
f 134//134 142//142 135//135
f 135//135 142//142 143//143
f 135//135 143//143 136//136
f 136//136 143//143 144//144
f 136//136 144//144 137//137
f 137//137 144//144 123//130
f 115//115 145//145 138//138
f 138//138 145//145 146//146
f 138//138 146//146 139//139
f 139//139 146//146 147//147
f 139//139 147//147 140//140
f 140//140 147//147 148//148
f 140//140 148//148 141//141
f 141//141 148//148 149//149
f 141//141 149//149 142//142
f 142//142 149//149 150//150
f 142//142 150//150 143//143
f 143//143 150//150 151//151
f 143//143 151//151 144//144
f 144//144 151//151 123//130
f 115//115 152//152 145//145
f 145//145 152//152 153//153
f 145//145 153//153 146//146
f 146//146 153//153 154//154
f 146//146 154//154 147//147
f 147//147 154//154 155//155
f 147//147 155//155 148//148
f 148//148 155//155 156//156
f 148//148 156//156 149//149
f 149//149 156//156 157//157
f 149//149 157//157 150//150
f 150//150 157//157 158//158
f 150//150 158//158 151//151
f 151//151 158//158 123//130
f 115//115 159//159 152//152
f 152//152 159//159 160//160
f 152//152 160//160 153//153
f 153//153 160//160 161//161
f 153//153 161//161 154//154
f 154//154 161//161 162//162
f 154//154 162//162 155//155
f 155//155 162//162 163//163
f 155//155 163//163 156//156
f 156//156 163//163 164//164
f 156//156 164//164 157//157
f 157//157 164//164 165//165
f 157//157 165//165 158//158
f 158//158 165//165 123//130
f 115//115 166//166 159//159
f 159//159 166//166 167//167
f 159//159 167//167 160//160
f 160//160 167//167 168//168
f 160//160 168//168 161//161
f 161//161 168//168 169//169
f 161//161 169//169 162//162
f 162//162 169//169 170//170
f 162//162 170//170 163//163
f 163//163 170//170 171//171
f 163//163 171//171 164//164
f 164//164 171//171 172//172
f 164//164 172//172 165//165
f 165//165 172//172 123//130
f 115//115 116//117 166//166
f 166//166 116//117 117//119
f 166//166 117//119 167//167
f 167//167 117//119 118//121
f 167//167 118//121 168//168
f 168//168 118//121 119//123
f 168//168 119//123 169//169
f 169//169 119//123 120//125
f 169//169 120//125 170//170
f 170//170 120//125 121//127
f 170//170 121//127 171//171
f 171//171 121//127 122//129
f 171//171 122//129 172//172
f 172//172 122//129 123//130
o Cone
v 0.000000 0.705265 0.448491
v 0.000000 0.596044 0.222874
v 0.056050 0.611064 0.223066
v 0.097079 0.652090 0.223592
v 0.112100 0.708135 0.224309
v 0.097079 0.764181 0.225027
v 0.056050 0.805206 0.225552
v 0.000000 0.820226 0.225744
v -0.056050 0.805206 0.225552
v -0.097079 0.764181 0.225027
v -0.112100 0.708135 0.224309
v -0.097079 0.652090 0.223592
v -0.056050 0.611064 0.223066
v 0.000000 0.708135 0.224309
vn 0.000000 -0.012800 0.999900
vn 0.000000 -0.875800 -0.482600
vn 0.441000 -0.757700 -0.481100
vn 0.763800 -0.434900 -0.477000
vn 0.881900 0.006000 -0.471300
vn 0.763800 0.447000 -0.465700
vn 0.441000 0.769700 -0.461600
vn 0.000000 0.887900 -0.460000
vn -0.441000 0.769700 -0.461600
vn -0.763800 0.447000 -0.465700
vn -0.881900 0.006000 -0.471300
vn -0.763800 -0.434900 -0.477000
vn -0.441000 -0.757700 -0.481100
vn 0.000000 0.012800 -0.999900
usemtl b0b0b0
s 1
f 173//173 174//174 175//175
f 173//173 175//175 176//176
f 173//173 176//176 177//177
f 173//173 177//177 178//178
f 173//173 178//178 179//179
f 173//173 179//179 180//180
f 173//173 180//180 181//181
f 173//173 181//181 182//182
f 173//173 182//182 183//183
f 173//173 183//183 184//184
f 173//173 184//184 185//185
f 173//173 185//185 174//174
f 175//175 174//174 186//186
f 176//176 175//175 186//186
f 177//177 176//176 186//186
f 178//178 177//177 186//186
f 179//179 178//178 186//186
f 180//180 179//179 186//186
f 181//181 180//180 186//186
f 182//182 181//181 186//186
f 183//183 182//182 186//186
f 184//184 183//183 186//186
f 185//185 184//184 186//186
f 174//174 185//185 186//186
