# Blender v2.74 (sub 0) OBJ File: ''
# www.blender.org
mtllib untitled-scene.mtl
o Sphere
v 0.000000 1.000000 -0.000000
v 0.382700 0.923900 -0.000000
v 0.707100 0.707100 -0.000000
v 0.923900 0.382700 -0.000000
v 1.000000 0.000000 0.000000
v 0.923900 -0.382700 0.000000
v 0.707100 -0.707100 0.000000
v 0.382700 -0.923900 0.000000
v 0.000000 -1.000000 0.000000
v 0.353600 0.923900 0.146400
v 0.653300 0.707100 0.270600
v 0.853600 0.382700 0.353600
v 0.923900 0.000000 0.382700
v 0.853600 -0.382700 0.353600
v 0.653300 -0.707100 0.270600
v 0.353600 -0.923900 0.146400
v 0.270600 0.923900 0.270600
v 0.500000 0.707100 0.500000
v 0.653300 0.382700 0.653300
v 0.707100 0.000000 0.707100
v 0.653300 -0.382700 0.653300
v 0.500000 -0.707100 0.500000
v 0.270600 -0.923900 0.270600
v 0.146400 0.923900 0.353600
v 0.270600 0.707100 0.653300
v 0.353600 0.382700 0.853600
v 0.382700 0.000000 0.923900
v 0.353600 -0.382700 0.853600
v 0.270600 -0.707100 0.653300
v 0.146400 -0.923900 0.353600
v 0.000000 0.923900 0.382700
v 0.000000 0.707100 0.707100
v 0.000000 0.382700 0.923900
v 0.000000 0.000000 1.000000
v 0.000000 -0.382700 0.923900
v 0.000000 -0.707100 0.707100
v 0.000000 -0.923900 0.382700
v -0.146400 0.923900 0.353600
v -0.270600 0.707100 0.653300
v -0.353600 0.382700 0.853600
v -0.382700 0.000000 0.923900
v -0.353600 -0.382700 0.853600
v -0.270600 -0.707100 0.653300
v -0.146400 -0.923900 0.353600
v -0.270600 0.923900 0.270600
v -0.500000 0.707100 0.500000
v -0.653300 0.382700 0.653300
v -0.707100 0.000000 0.707100
v -0.653300 -0.382700 0.653300
v -0.500000 -0.707100 0.500000
v -0.270600 -0.923900 0.270600
v -0.353600 0.923900 0.146400
v -0.653300 0.707100 0.270600
v -0.853600 0.382700 0.353600
v -0.923900 0.000000 0.382700
v -0.853600 -0.382700 0.353600
v -0.653300 -0.707100 0.270600
v -0.353600 -0.923900 0.146400
v -0.382700 0.923900 -0.000000
v -0.707100 0.707100 -0.000000
v -0.923900 0.382700 -0.000000
v -1.000000 0.000000 0.000000
v -0.923900 -0.382700 0.000000
v -0.707100 -0.707100 0.000000
v -0.382700 -0.923900 0.000000
v -0.353600 0.923900 -0.146400
v -0.653300 0.707100 -0.270600
v -0.853600 0.382700 -0.353600
v -0.923900 -0.000000 -0.382700
v -0.853600 -0.382700 -0.353600
v -0.653300 -0.707100 -0.270600
v -0.353600 -0.923900 -0.146400
v -0.270600 0.923900 -0.270600
v -0.500000 0.707100 -0.500000
v -0.653300 0.382700 -0.653300
v -0.707100 -0.000000 -0.707100
v -0.653300 -0.382700 -0.653300
v -0.500000 -0.707100 -0.500000
v -0.270600 -0.923900 -0.270600
v -0.146400 0.923900 -0.353600
v -0.270600 0.707100 -0.653300
v -0.353600 0.382700 -0.853600
v -0.382700 -0.000000 -0.923900
v -0.353600 -0.382700 -0.853600
v -0.270600 -0.707100 -0.653300
v -0.146400 -0.923900 -0.353600
v 0.000000 0.923900 -0.382700
v 0.000000 0.707100 -0.707100
v 0.000000 0.382700 -0.923900
v 0.000000 -0.000000 -1.000000
v 0.000000 -0.382700 -0.923900
v 0.000000 -0.707100 -0.707100
v 0.000000 -0.923900 -0.382700
v 0.146400 0.923900 -0.353600
v 0.270600 0.707100 -0.653300
v 0.353600 0.382700 -0.853600
v 0.382700 -0.000000 -0.923900
v 0.353600 -0.382700 -0.853600
v 0.270600 -0.707100 -0.653300
v 0.146400 -0.923900 -0.353600
v 0.270600 0.923900 -0.270600
v 0.500000 0.707100 -0.500000
v 0.653300 0.382700 -0.653300
v 0.707100 -0.000000 -0.707100
v 0.653300 -0.382700 -0.653300
v 0.500000 -0.707100 -0.500000
v 0.270600 -0.923900 -0.270600
v 0.353600 0.923900 -0.146400
v 0.653300 0.707100 -0.270600
v 0.853600 0.382700 -0.353600
v 0.923900 -0.000000 -0.382700
v 0.853600 -0.382700 -0.353600
v 0.653300 -0.707100 -0.270600
v 0.353600 -0.923900 -0.146400
vn 0.000000 1.000000 0.000000
vn 0.372400 0.915100 0.154200
vn 0.403100 0.915100 0.000000
vn 0.664100 0.695200 0.275100
vn 0.718800 0.695200 0.000000
vn 0.856700 0.374400 0.354800
vn 0.927300 0.374400 0.000000
vn 0.923900 0.000000 0.382700
vn 1.000000 0.000000 0.000000
vn 0.856700 -0.374400 0.354800
vn 0.927300 -0.374400 0.000000
vn 0.664100 -0.695200 0.275100
vn 0.718800 -0.695200 0.000000
vn 0.372400 -0.915100 0.154200
vn 0.403100 -0.915100 0.000000
vn 0.000000 -1.000000 0.000000
vn 0.285000 0.915100 0.285000
vn 0.508300 0.695200 0.508300
vn 0.655700 0.374300 0.655700
vn 0.707100 0.000000 0.707100
vn 0.655700 -0.374300 0.655700
vn 0.508300 -0.695200 0.508300
vn 0.285000 -0.915100 0.285000
vn 0.154200 0.915100 0.372400
vn 0.275100 0.695200 0.664100
vn 0.354800 0.374400 0.856700
vn 0.382700 0.000000 0.923900
vn 0.354800 -0.374400 0.856700
vn 0.275100 -0.695200 0.664100
vn 0.154200 -0.915100 0.372400
vn 0.000000 0.915100 0.403100
vn 0.000000 0.695200 0.718800
vn 0.000000 0.374400 0.927300
vn 0.000000 0.000000 1.000000
vn 0.000000 -0.374400 0.927300
vn 0.000000 -0.695200 0.718800
vn 0.000000 -0.915100 0.403100
vn -0.154200 0.915100 0.372400
vn -0.275100 0.695200 0.664100
vn -0.354800 0.374400 0.856700
vn -0.382700 0.000000 0.923900
vn -0.354800 -0.374400 0.856700
vn -0.275100 -0.695200 0.664100
vn -0.154200 -0.915100 0.372400
vn -0.285000 0.915100 0.285000
vn -0.508300 0.695200 0.508300
vn -0.655700 0.374300 0.655700
vn -0.707100 0.000000 0.707100
vn -0.655700 -0.374300 0.655700
vn -0.508300 -0.695200 0.508300
vn -0.285000 -0.915100 0.285000
vn -0.372400 0.915100 0.154200
vn -0.664100 0.695200 0.275100
vn -0.856700 0.374400 0.354800
vn -0.923900 0.000000 0.382700
vn -0.856700 -0.374400 0.354800
vn -0.664100 -0.695200 0.275100
vn -0.372400 -0.915100 0.154200
vn -0.403100 0.915100 0.000000
vn -0.718800 0.695200 0.000000
vn -0.927300 0.374400 0.000000
vn -1.000000 0.000000 0.000000
vn -0.927300 -0.374400 0.000000
vn -0.718800 -0.695200 0.000000
vn -0.403100 -0.915100 0.000000
vn -0.372400 0.915100 -0.154200
vn -0.664100 0.695200 -0.275100
vn -0.856700 0.374400 -0.354800
vn -0.923900 0.000000 -0.382700
vn -0.856700 -0.374400 -0.354800
vn -0.664100 -0.695200 -0.275100
vn -0.372400 -0.915100 -0.154200
vn -0.285000 0.915100 -0.285000
vn -0.508300 0.695200 -0.508300
vn -0.655700 0.374300 -0.655700
vn -0.707100 0.000000 -0.707100
vn -0.655700 -0.374300 -0.655700
vn -0.508300 -0.695200 -0.508300
vn -0.285000 -0.915100 -0.285000
vn -0.154200 0.915100 -0.372400
vn -0.275100 0.695200 -0.664100
vn -0.354800 0.374400 -0.856700
vn -0.382700 0.000000 -0.923900
vn -0.354800 -0.374400 -0.856700
vn -0.275100 -0.695200 -0.664100
vn -0.154200 -0.915100 -0.372400
vn 0.000000 0.915100 -0.403100
vn 0.000000 0.695200 -0.718800
vn 0.000000 0.374400 -0.927300
vn 0.000000 0.000000 -1.000000
vn 0.000000 -0.374400 -0.927300
vn 0.000000 -0.695200 -0.718800
vn 0.000000 -0.915100 -0.403100
vn 0.154200 0.915100 -0.372400
vn 0.275100 0.695200 -0.664100
vn 0.354800 0.374400 -0.856700
vn 0.382700 0.000000 -0.923900
vn 0.354800 -0.374400 -0.856700
vn 0.275100 -0.695200 -0.664100
vn 0.154200 -0.915100 -0.372400
vn 0.285000 0.915100 -0.285000
vn 0.508300 0.695200 -0.508300
vn 0.655700 0.374300 -0.655700
vn 0.707100 0.000000 -0.707100
vn 0.655700 -0.374300 -0.655700
vn 0.508300 -0.695200 -0.508300
vn 0.285000 -0.915100 -0.285000
vn 0.372400 0.915100 -0.154200
vn 0.664100 0.695200 -0.275100
vn 0.856700 0.374400 -0.354800
vn 0.923900 0.000000 -0.382700
vn 0.856700 -0.374400 -0.354800
vn 0.664100 -0.695200 -0.275100
vn 0.372400 -0.915100 -0.154200
usemtl b0b0b0
s 1
f 1//1 10//2 2//3
f 2//3 10//2 11//4
f 2//3 11//4 3//5
f 3//5 11//4 12//6
f 3//5 12//6 4//7
f 4//7 12//6 13//8
f 4//7 13//8 5//9
f 5//9 13//8 14//10
f 5//9 14//10 6//11
f 6//11 14//10 15//12
f 6//11 15//12 7//13
f 7//13 15//12 16//14
f 7//13 16//14 8//15
f 8//15 16//14 9//16
f 1//1 17//17 10//2
f 10//2 17//17 18//18
f 10//2 18//18 11//4
f 11//4 18//18 19//19
f 11//4 19//19 12//6
f 12//6 19//19 20//20
f 12//6 20//20 13//8
f 13//8 20//20 21//21
f 13//8 21//21 14//10
f 14//10 21//21 22//22
f 14//10 22//22 15//12
f 15//12 22//22 23//23
f 15//12 23//23 16//14
f 16//14 23//23 9//16
f 1//1 24//24 17//17
f 17//17 24//24 25//25
f 17//17 25//25 18//18
f 18//18 25//25 26//26
f 18//18 26//26 19//19
f 19//19 26//26 27//27
f 19//19 27//27 20//20
f 20//20 27//27 28//28
f 20//20 28//28 21//21
f 21//21 28//28 29//29
f 21//21 29//29 22//22
f 22//22 29//29 30//30
f 22//22 30//30 23//23
f 23//23 30//30 9//16
f 1//1 31//31 24//24
f 24//24 31//31 32//32
f 24//24 32//32 25//25
f 25//25 32//32 33//33
f 25//25 33//33 26//26
f 26//26 33//33 34//34
f 26//26 34//34 27//27
f 27//27 34//34 35//35
f 27//27 35//35 28//28
f 28//28 35//35 36//36
f 28//28 36//36 29//29
f 29//29 36//36 37//37
f 29//29 37//37 30//30
f 30//30 37//37 9//16
f 1//1 38//38 31//31
f 31//31 38//38 39//39
f 31//31 39//39 32//32
f 32//32 39//39 40//40
f 32//32 40//40 33//33
f 33//33 40//40 41//41
f 33//33 41//41 34//34
f 34//34 41//41 42//42
f 34//34 42//42 35//35
f 35//35 42//42 43//43
f 35//35 43//43 36//36
f 36//36 43//43 44//44
f 36//36 44//44 37//37
f 37//37 44//44 9//16
f 1//1 45//45 38//38
f 38//38 45//45 46//46
f 38//38 46//46 39//39
f 39//39 46//46 47//47
f 39//39 47//47 40//40
f 40//40 47//47 48//48
f 40//40 48//48 41//41
f 41//41 48//48 49//49
f 41//41 49//49 42//42
f 42//42 49//49 50//50
f 42//42 50//50 43//43
f 43//43 50//50 51//51
f 43//43 51//51 44//44
f 44//44 51//51 9//16
f 1//1 52//52 45//45
f 45//45 52//52 53//53
f 45//45 53//53 46//46
f 46//46 53//53 54//54
f 46//46 54//54 47//47
f 47//47 54//54 55//55
f 47//47 55//55 48//48
f 48//48 55//55 56//56
f 48//48 56//56 49//49
f 49//49 56//56 57//57
f 49//49 57//57 50//50
f 50//50 57//57 58//58
f 50//50 58//58 51//51
f 51//51 58//58 9//16
f 1//1 59//59 52//52
f 52//52 59//59 60//60
f 52//52 60//60 53//53
f 53//53 60//60 61//61
f 53//53 61//61 54//54
f 54//54 61//61 62//62
f 54//54 62//62 55//55
f 55//55 62//62 63//63
f 55//55 63//63 56//56
f 56//56 63//63 64//64
f 56//56 64//64 57//57
f 57//57 64//64 65//65
f 57//57 65//65 58//58
f 58//58 65//65 9//16
f 1//1 66//66 59//59
f 59//59 66//66 67//67
f 59//59 67//67 60//60
f 60//60 67//67 68//68
f 60//60 68//68 61//61
f 61//61 68//68 69//69
f 61//61 69//69 62//62
f 62//62 69//69 70//70
f 62//62 70//70 63//63
f 63//63 70//70 71//71
f 63//63 71//71 64//64
f 64//64 71//71 72//72
f 64//64 72//72 65//65
f 65//65 72//72 9//16
f 1//1 73//73 66//66
f 66//66 73//73 74//74
f 66//66 74//74 67//67
f 67//67 74//74 75//75
f 67//67 75//75 68//68
f 68//68 75//75 76//76
f 68//68 76//76 69//69
f 69//69 76//76 77//77
f 69//69 77//77 70//70
f 70//70 77//77 78//78
f 70//70 78//78 71//71
f 71//71 78//78 79//79
f 71//71 79//79 72//72
f 72//72 79//79 9//16
f 1//1 80//80 73//73
f 73//73 80//80 81//81
f 73//73 81//81 74//74
f 74//74 81//81 82//82
f 74//74 82//82 75//75
f 75//75 82//82 83//83
f 75//75 83//83 76//76
f 76//76 83//83 84//84
f 76//76 84//84 77//77
f 77//77 84//84 85//85
f 77//77 85//85 78//78
f 78//78 85//85 86//86
f 78//78 86//86 79//79
f 79//79 86//86 9//16
f 1//1 87//87 80//80
f 80//80 87//87 88//88
f 80//80 88//88 81//81
f 81//81 88//88 89//89
f 81//81 89//89 82//82
f 82//82 89//89 90//90
f 82//82 90//90 83//83
f 83//83 90//90 91//91
f 83//83 91//91 84//84
f 84//84 91//91 92//92
f 84//84 92//92 85//85
f 85//85 92//92 93//93
f 85//85 93//93 86//86
f 86//86 93//93 9//16
f 1//1 94//94 87//87
f 87//87 94//94 95//95
f 87//87 95//95 88//88
f 88//88 95//95 96//96
f 88//88 96//96 89//89
f 89//89 96//96 97//97
f 89//89 97//97 90//90
f 90//90 97//97 98//98
f 90//90 98//98 91//91
f 91//91 98//98 99//99
f 91//91 99//99 92//92
f 92//92 99//99 100//100
f 92//92 100//100 93//93
f 93//93 100//100 9//16
f 1//1 101//101 94//94
f 94//94 101//101 102//102
f 94//94 102//102 95//95
f 95//95 102//102 103//103
f 95//95 103//103 96//96
f 96//96 103//103 104//104
f 96//96 104//104 97//97
f 97//97 104//104 105//105
f 97//97 105//105 98//98
f 98//98 105//105 106//106
f 98//98 106//106 99//99
f 99//99 106//106 107//107
f 99//99 107//107 100//100
f 100//100 107//107 9//16
f 1//1 108//108 101//101
f 101//101 108//108 109//109
f 101//101 109//109 102//102
f 102//102 109//109 110//110
f 102//102 110//110 103//103
f 103//103 110//110 111//111
f 103//103 111//111 104//104
f 104//104 111//111 112//112
f 104//104 112//112 105//105
f 105//105 112//112 113//113
f 105//105 113//113 106//106
f 106//106 113//113 114//114
f 106//106 114//114 107//107
f 107//107 114//114 9//16
f 1//1 2//3 108//108
f 108//108 2//3 3//5
f 108//108 3//5 109//109
f 109//109 3//5 4//7
f 109//109 4//7 110//110
f 110//110 4//7 5//9
f 110//110 5//9 111//111
f 111//111 5//9 6//11
f 111//111 6//11 112//112
f 112//112 6//11 7//13
f 112//112 7//13 113//113
f 113//113 7//13 8//15
f 113//113 8//15 114//114
f 114//114 8//15 9//16
